<?xml version="1.0" encoding="UTF-8"?>
<svg width="695px" height="653px" viewBox="0 0 695 653" version="1.1" xmlns="http://www.w3.org/2000/svg" xmlns:xlink="http://www.w3.org/1999/xlink">
    <!-- Generator: Sketch 41.2 (35397) - http://www.bohemiancoding.com/sketch -->
    <title>Artboard</title>
    <desc>Created with Sketch.</desc>
    <defs></defs>
    <g id="Page-1" stroke="none" stroke-width="1" fill="none" fill-rule="evenodd">
        <g id="Artboard" fill="#FFFFFF">
            <g id="download" transform="translate(45.000000, 42.000000)">
                <g id="g4578">
                    <path d="M108.71011,574.96895 C106.33309,574.54886 101.53134,573.0622 98.03956,571.66527 C94.54777,570.26834 90.64261,569.12324 89.36141,569.12061 C85.81633,569.11361 79.53197,562.85467 79.53197,559.33136 C79.53197,553.88213 84.88177,551.54781 90.37768,554.59897 C95.22222,557.28852 108.90689,561.12539 113.65493,561.12539 C116.54164,561.12539 120.38204,560.17169 123.68267,558.63516 C126.62479,557.26553 130.05727,556.14053 131.31042,556.13516 C134.06603,556.12336 148.53197,549.40278 148.53197,548.1344 C148.53197,547.63947 149.74352,546.64747 151.2243,545.92996 C154.40132,544.39053 156.35391,538.67117 154.6396,535.92612 C154.04897,534.98038 153.84421,532.81419 154.18457,531.11237 C154.67966,528.63694 154.28137,527.47325 152.19293,525.2934 C150.75717,523.79478 149.07707,521.11891 148.45938,519.34702 C147.8417,517.57512 146.69569,516.12539 145.91271,516.12539 C145.12972,516.12539 143.97541,514.99799 143.34759,513.62006 C142.55924,511.88981 140.94164,510.79989 138.11903,510.09707 C135.87114,509.53736 133.35697,508.71356 132.53197,508.26641 C131.70697,507.81926 127.89551,507.345 124.06207,507.21251 C120.22862,507.08002 116.69496,506.72612 116.20948,506.42608 C115.724,506.12604 107.47792,505.78314 97.88487,505.66409 L80.44295,505.44764 L75.95822,502.28652 C73.49162,500.5479 71.14915,499.12217 70.75273,499.11822 C70.35631,499.11422 67.8101,496.41428 65.09447,493.11822 C62.37885,489.82217 59.9012,487.12539 59.58858,487.12539 C59.27597,487.12539 58.40922,485.74511 57.66248,484.0581 C56.70963,481.90545 56.43106,478.10347 56.72832,471.3081 C57.09896,462.83513 57.48921,461.12564 59.85184,457.62539 C64.9409,450.08595 68.4325,447.15857 76.53197,443.64067 C78.45697,442.80457 81.67634,441.23298 83.68612,440.14824 C85.69591,439.06351 90.64591,437.70202 94.68612,437.12271 C98.72634,436.5434 104.8013,435.59175 108.18603,435.00794 C119.42012,433.07023 131.75716,437.56102 135.50476,444.95218 C136.50388,446.92268 136.32832,447.80324 134.35825,450.7027 C132.84062,452.9363 131.51055,453.92005 130.53197,453.53272 C123.40207,450.71068 117.42834,450.01966 105.81703,450.67378 C95.82617,451.23661 92.7455,451.79557 88.89756,453.74365 C86.31006,455.05361 83.61545,456.12539 82.90955,456.12539 C80.61315,456.12539 76.53197,458.41448 76.53197,459.7025 C76.53197,460.39334 75.29447,461.86093 73.78197,462.96381 C71.22325,464.82956 71.0324,465.46728 71.03818,472.13236 C71.04318,477.58922 71.432,479.57912 72.67151,480.48547 C73.56643,481.13985 74.46762,482.55273 74.67416,483.62521 C74.8807,484.69768 76.0551,486.07641 77.28394,486.68905 C78.51278,487.3017 80.3088,488.50603 81.27508,489.36534 C82.74718,490.67448 87.19353,490.98512 108.70524,491.28177 C132.86862,491.61499 134.54475,491.75861 137.20524,493.72373 C138.75994,494.87209 141.64065,496.11285 143.60681,496.48097 C145.62845,496.85949 148.42524,498.44833 150.0439,500.13784 C151.61814,501.78099 153.5033,503.12539 154.23316,503.12539 C155.85422,503.12539 161.46202,509.12957 161.50266,510.90872 C161.51876,511.61456 163.10697,513.76706 165.03197,515.69206 C166.95697,517.61706 168.53197,519.93498 168.53197,520.843 C168.53197,521.75102 169.44777,524.38572 170.56707,526.6979 C173.51241,532.78215 173.53573,545.42803 170.60737,548.54514 C169.46591,549.76017 168.53198,551.23543 168.53198,551.82348 C168.53198,553.53998 160.70427,560.12539 158.66396,560.12539 C157.63971,560.12539 155.72851,560.96349 154.41684,561.98783 C153.10517,563.01217 150.97308,564.18222 149.67886,564.58795 C148.38464,564.99367 145.81318,566.35207 143.9645,567.60662 C142.11583,568.86116 138.55447,570.19485 136.05038,570.57036 C133.54629,570.94587 129.59275,572.07432 127.26473,573.07803 C122.22137,575.25244 114.66916,576.02209 108.71012,574.96895 L108.71011,574.96895 Z M290.29664,563.87539 C286.22574,560.72958 284.55243,554.87112 283.72228,540.85778 C283.09427,530.25685 282.53545,526.78672 281.22271,525.33615 C279.09678,522.98703 278.97863,515.82158 281.03197,513.76825 C283.39623,511.40399 283.19416,484.06565 280.78525,480.38919 C279.26871,478.07466 279.03809,475.05812 279.03525,457.49873 C279.03225,438.51143 279.16048,437.10132 281.13259,434.44975 C282.8188,432.18259 284.13955,431.56571 287.82732,431.32286 C292.02405,431.04649 292.78261,431.37086 296.59727,435.07286 C298.894,437.30175 301.16887,439.12539 301.65255,439.12539 C302.13623,439.12539 302.53197,439.84252 302.53197,440.71901 C302.53197,441.5955 303.32537,442.52011 304.29508,442.77369 C305.26479,443.02728 306.81886,444.56015 307.74857,446.18007 C308.67828,447.8 310.08239,449.12539 310.86883,449.12539 C311.65526,449.12539 312.53265,450.01997 312.81857,451.11335 C313.1045,452.20673 314.47962,453.53519 315.8744,454.06548 C317.26918,454.59578 318.90356,455.9512 319.50635,457.07752 C320.10914,458.20385 321.23599,459.12539 322.01045,459.12539 C322.78491,459.12539 324.01659,459.97919 324.74751,461.02273 C325.47843,462.06626 327.97895,463.9117 330.30421,465.12369 C332.62948,466.33569 334.53197,467.67729 334.53197,468.10504 C334.53197,468.53278 335.88197,469.44194 337.53197,470.12539 C339.18197,470.80884 340.53197,471.95606 340.53197,472.67475 C340.53197,473.52879 342.52394,474.19091 346.28197,474.58602 C353.35822,475.32999 356.11421,476.70939 358.64034,480.77152 C360.48635,483.73997 360.50026,484.01425 358.88662,485.62789 C357.52102,486.99348 357.41501,487.66934 358.36054,488.98175 C359.01183,489.88575 359.8414,491.25674 360.20403,492.02839 C360.99338,493.70804 369.74285,502.11183 370.71054,502.1198 C371.08376,502.1228 372.06549,502.80177 372.89218,503.62846 C374.2296,504.96588 374.46829,504.9014 375.058,503.04338 C375.50752,501.62708 375.0469,500.23796 373.62636,498.72586 C372.47445,497.49971 371.53197,496.01809 371.53197,495.43338 C371.53197,494.84868 370.85697,493.81008 370.03197,493.12539 C369.20697,492.4407 368.53197,490.34648 368.53197,488.47156 C368.53197,486.50522 367.95136,484.83982 367.15996,484.53613 C366.40536,484.24656 365.5129,482.00293 365.17673,479.55028 C364.84056,477.09763 363.82446,473.6579 362.91873,471.90642 C362.01301,470.15494 360.66506,465.82123 359.92329,462.27596 C359.18153,458.73068 357.89253,455.0763 357.05886,454.1551 C355.27801,452.18728 352.55831,443.72166 352.54279,440.0979 C352.53679,438.70777 351.83331,436.57293 350.9794,435.3538 C350.12549,434.13467 348.74899,429.88622 347.9205,425.91279 C347.09202,421.93936 346.03243,418.2242 345.56585,417.65688 C344.72117,416.62982 344.09407,412.06476 344.38117,409.03286 C344.67865,405.89135 350.60023,403.83307 357.98747,404.30345 C363.93114,404.68192 365.08836,405.08542 366.95921,407.43168 C368.14055,408.91322 369.79925,410.12539 370.64522,410.12539 C371.49119,410.12539 373.22796,411.23733 374.50471,412.59637 C375.78146,413.95541 378.2951,415.55217 380.09059,416.14474 C381.88608,416.7373 383.59369,417.84386 383.88529,418.60375 C384.17689,419.36364 386.43092,420.28761 388.89424,420.65701 C391.35756,421.02641 394.29096,422.18384 395.41289,423.22908 C396.53483,424.27432 399.83309,425.60536 402.74237,426.18695 C407.92657,427.22331 412.53735,428.97262 413.53373,430.28116 C413.8097,430.64358 417.25483,431.20466 421.18957,431.528 C428.82322,432.1553 431.62797,432.875 432.70201,434.48209 C433.44642,435.59595 433.35355,435.58108 446.18668,436.6415 C453.56035,437.25079 455.85279,437.83738 457.96997,439.65663 C459.41569,440.8989 462.25588,442.22621 464.2815,442.60622 C466.30712,442.98623 469.10464,444.08542 470.49821,445.04887 C471.89178,446.01231 475.16947,447.38215 477.78197,448.09295 C480.39447,448.80375 482.53197,449.78797 482.53197,450.2801 C482.53197,451.36355 485.69297,452.6006 490.89005,453.55102 L494.74813,454.25657 L494.03321,446.94098 C493.64,442.9174 492.66823,438.88938 491.8737,437.98982 C490.86632,436.84926 490.15784,432.0518 489.53278,422.13826 C488.86044,411.47475 488.26147,407.63528 487.1359,406.77383 C486.06175,405.95173 485.19853,401.38229 484.09809,390.69332 C483.25259,382.48069 482.17821,375.50569 481.71058,375.19332 C479.98071,374.03783 477.81323,361.36126 477.9209,353.02924 C478.04795,343.19662 479.11328,341.12539 484.04363,341.12539 C489.09171,341.12539 491.51791,343.75052 492.38668,350.15251 C492.79894,353.19047 493.50964,356.28024 493.96602,357.01868 C495.35888,359.27237 496.6077,365.21646 497.50429,373.86007 C498.00981,378.73352 498.95596,382.69224 499.82227,383.55855 C501.54814,385.28442 503.2085,394.17497 504.08406,406.37875 C504.42946,411.1931 505.06404,414.91459 505.49422,414.64872 C505.9244,414.38286 506.53883,416.06884 506.85962,418.39536 C507.18041,420.72188 507.90983,425.96154 508.48055,430.03906 C509.05128,434.11658 510.18296,438.18724 510.9954,439.08499 C512.97488,441.27228 514.25433,467.40659 512.62381,472.34713 C510.73181,478.07994 502.26326,479.60936 497.03197,475.16301 C495.93197,474.22806 492.64776,472.94003 489.73373,472.30072 C483.40222,470.91165 473.5869,466.4321 472.88884,464.613 C472.61475,463.89874 469.46561,462.73296 465.89074,462.02239 C461.59449,461.16844 459.06393,460.11936 458.42629,458.92792 C457.89571,457.93653 456.72188,457.12539 455.81778,457.12539 C453.5072,457.12539 447.1667,454.82432 446.35605,453.69157 C445.54948,452.56452 436.39441,451.32717 427.99341,451.20977 C423.99456,451.15387 420.61675,450.43232 417.99341,449.07357 C415.81462,447.94506 412.45697,446.81292 410.53197,446.55769 C405.62668,445.90732 400.53197,444.1367 400.53197,443.08228 C400.53197,442.59388 398.3009,441.89831 395.57403,441.53658 C392.21885,441.0915 389.61812,439.9879 387.52901,438.12275 C385.8282,436.60427 382.68718,435.08601 380.53426,434.74175 C378.38504,434.39807 376.2678,433.50476 375.82928,432.75662 C374.79714,430.99572 368.97428,428.01641 368.15875,428.83194 C366.1723,430.8184 368.67137,440.33929 371.87707,442.99783 C372.78726,443.75268 373.53197,445.43535 373.53197,446.73711 C373.53197,448.03886 374.45383,451.47126 375.58054,454.36466 C376.70726,457.25806 378.04516,462.05851 378.55366,465.03232 C379.06335,468.01314 380.38767,471.40734 381.50509,472.59677 C382.61987,473.78341 383.53474,476.07529 383.53813,477.68984 C383.54113,479.30439 384.26443,481.97539 385.1446,483.62539 C386.02477,485.27539 387.82739,489.4625 389.15043,492.93007 C390.47346,496.39765 392.45055,500.195 393.54396,501.36863 C394.63737,502.54227 395.53197,504.30183 395.53197,505.27877 C395.53197,506.25571 396.43197,507.53669 397.53197,508.12539 C398.63197,508.71409 399.53197,509.83978 399.53197,510.62691 C399.53197,511.9326 402.32021,515.50237 408.2793,521.82612 C411.09063,524.80947 414.53411,531.83147 414.52538,534.56322 C414.52138,535.69741 413.73426,537.75499 412.77538,539.13561 C410.70273,542.11989 405.22854,542.42712 401.43772,539.77193 C398.50824,537.72004 395.1647,537.65807 393.53197,539.62539 C390.54078,543.22956 377.5,539.2617 375.6769,534.19271 C375.16906,532.78069 372.56619,529.28076 369.89276,526.4151 C363.99377,520.09196 359.53197,514.18931 359.53197,512.70847 C359.53197,512.1063 358.18197,511.01604 356.53197,510.28568 C354.88197,509.55532 353.53197,508.30933 353.53197,507.51682 C353.53197,506.72431 352.4768,505.67471 351.18715,505.18439 C349.8975,504.69406 348.03424,503.4848 347.04658,502.49715 C344.56132,500.01188 342.39243,499.89805 340.30084,502.1431 C339.32349,503.19217 336.6231,504.56231 334.29997,505.18786 C331.97685,505.81341 329.07516,507.40527 327.85179,508.72531 C326.5967,510.07957 324.48823,511.12539 323.013,511.12539 C321.57504,511.12539 318.92358,512.25039 317.12086,513.62539 C315.31814,515.00039 313.13497,516.12539 312.26937,516.12539 C310.02914,516.12539 307.47323,517.21856 307.93275,517.98017 C308.43436,518.81153 305.81331,521.25273 304.80164,520.89644 C304.37832,520.74736 303.76518,529.85039 303.43911,541.12539 C303.11304,552.40039 302.77554,561.70575 302.68911,561.80396 C299.5718,565.34638 293.51116,566.35943 290.29664,563.87539 L290.29664,563.87539 Z M305.54163,499.61375 C306.23164,498.78234 308.64924,497.21855 310.91408,496.13865 C313.17892,495.05875 315.70697,493.72391 316.53197,493.17234 C317.35697,492.62077 319.96764,491.68598 322.33347,491.09503 C324.74113,490.49363 326.90929,489.27316 327.25806,488.32298 C327.60076,487.38931 328.4631,486.27363 329.17437,485.84371 C330.85177,484.82983 324.21391,478.84562 315.62144,473.62539 C311.91755,471.37514 304.53197,464.619 304.53197,463.48102 C304.53197,462.80955 303.68056,461.98994 302.63994,461.65966 C301.59932,461.32938 300.51645,460.17406 300.23356,459.09227 C299.95067,458.01049 299.05316,457.12539 298.23909,457.12539 C295.59038,457.12539 295.5638,460.61707 297.97274,492.12539 C298.24606,495.70039 298.4837,499.18789 298.50083,499.87539 C298.54483,501.64354 304.0261,501.43986 305.54163,499.61375 L305.54163,499.61375 Z M222.41823,561.0727 C218.28213,558.97276 217.84686,557.59304 217.59127,545.77224 C217.48089,540.66758 216.73169,536.16909 215.45059,532.91892 C214.3666,530.16883 213.20346,525.27572 212.86581,522.04534 C212.37673,517.36604 211.77211,515.85753 209.89194,514.6256 C207.76047,513.229 207.30043,513.231 205.14057,514.6462 C203.47411,515.73811 199.12261,516.39544 190.78593,516.81461 C179.32537,517.39084 178.7286,517.32203 176.58362,515.17705 C174.74779,513.34122 174.46549,512.2795 175.01608,509.28169 C175.38541,507.27073 176.03006,505.27043 176.44862,504.83657 C176.86717,504.40271 181.21966,503.23808 186.1208,502.24849 C194.66829,500.52266 202.66884,497.33099 204.05021,495.09589 C204.40988,494.51393 204.27602,493.495 203.75275,492.8316 C203.22948,492.16819 202.55131,487.56091 202.24571,482.59319 C201.9401,477.62548 200.92001,471.63644 199.97884,469.28422 C197.56818,463.25939 198.4141,452.94422 201.59666,449.55654 C204.1244,446.86588 207.67312,446.38562 209.42544,448.49704 C212.06148,451.67327 215.71451,465.08339 216.60007,474.83478 C217.61668,486.0293 219.85612,491.73066 223.13895,491.48202 C229.00259,491.03791 235.22246,489.69544 236.53197,488.59133 C237.35697,487.89574 241.14075,486.85005 244.94038,486.2676 C248.74001,485.68514 252.31751,484.73986 252.89038,484.16699 C254.79774,482.25963 258.65175,483.09134 261.60889,486.04848 C265.02066,489.46024 265.18194,490.47543 262.70558,492.95179 C261.70106,493.95631 260.59106,495.52902 260.23891,496.44671 C259.88676,497.36441 257.54724,498.66391 255.03998,499.3345 C252.43606,500.03094 249.86709,501.49118 249.04888,502.73993 C248.0017,504.33814 246.19311,505.10683 242.32421,505.59806 C236.87926,506.2894 226.53197,509.95238 226.53197,511.18856 C226.53197,511.57089 227.63128,514.30058 228.97488,517.25455 C231.83857,523.5505 233.60757,535.57362 233.85511,550.42325 C234.02478,560.60159 233.93851,561.07562 231.73492,562.07923 C228.67332,563.47359 226.73457,563.26414 222.41823,561.0727 L222.41823,561.0727 Z M224.03197,391.34012 C220.928,391.04496 217.1374,389.54498 214.53197,387.58087 C213.70697,386.95894 210.01205,385.65681 206.32103,384.68726 C202.63001,383.71771 199.08741,382.29465 198.44858,381.52492 C197.80976,380.75518 196.66718,380.12539 195.90953,380.12539 C195.15187,380.12539 194.53197,379.72965 194.53197,379.24597 C194.53197,378.76229 192.84447,376.55822 190.78197,374.34803 C188.71947,372.13785 185.90697,368.66313 184.53197,366.62645 C183.15697,364.58977 181.25805,362.08242 180.31216,361.05458 C176.5309,356.94573 175.29796,350.01291 175.84165,335.917 C176.80719,310.88413 177.0417,308.87524 179.728,302.62539 C181.1464,299.32539 182.60294,294.93789 182.96475,292.87539 L183.6226,289.12539 L178.66618,289.12539 C174.35921,289.12539 173.37053,288.72224 171.12086,286.04866 C169.69697,284.35647 168.53197,281.96632 168.53197,280.73723 C168.53197,278.45713 171.83324,274.12539 173.57093,274.12539 C175.93738,274.12539 178.53197,269.983 178.53197,266.20485 C178.53197,262.6447 178.81326,262.22252 181.59194,261.61222 C183.54025,261.1843 184.98442,260.06556 185.56719,258.53276 C186.07059,257.20871 187.19248,256.12539 188.06027,256.12539 C188.92807,256.12539 191.29366,255.00039 193.31716,253.62539 C195.34065,252.25039 197.94963,251.12539 199.11488,251.12539 C202.81911,251.12539 207.74208,248.91735 210.42939,246.05062 C211.86081,244.52363 215.88398,241.82461 219.36978,240.05279 C222.85558,238.28097 225.93935,236.22736 226.2226,235.4892 C226.50586,234.75105 228.49135,233.67487 230.63479,233.0977 C232.77824,232.52053 234.53197,231.68399 234.53197,231.23872 C234.53197,230.79345 236.44447,229.6379 238.78197,228.67083 C246.64803,225.41648 252.00849,223.38318 256.03197,222.12764 C258.23197,221.44113 260.85252,220.16012 261.85542,219.28095 C263.06309,218.22228 266.10244,217.56952 270.85542,217.348 C274.80252,217.16405 279.15697,216.52562 280.53197,215.92927 C281.90697,215.33292 284.38197,214.22377 286.03197,213.46449 C287.68197,212.70521 294.5506,211.46831 301.29559,210.71583 C308.04058,209.96334 314.22384,208.79608 315.03618,208.1219 C315.94213,207.37003 320.4875,206.80296 326.79298,206.65515 C337.73489,206.39867 337.19165,206.57905 349.53197,199.10262 C353.10697,196.93668 356.94932,195.15573 358.07053,195.14497 C359.19174,195.13417 361.89174,194.19302 364.07053,193.05346 C367.32241,191.35265 370.54946,190.87986 382.08691,190.41389 C391.47609,190.03468 396.82668,190.21275 398.20481,190.9503 C401.95616,192.95796 401.90994,200.85928 398.13231,203.35119 C397.52714,203.75038 394.67489,204.82279 391.79397,205.73432 C386.75751,207.32787 382.75275,210.12539 385.50799,210.12539 C387.18287,210.12539 403.68701,218.13753 405.26724,219.71777 C405.96938,220.4199 407.44119,221.27918 408.53793,221.62727 C409.63467,221.97536 410.53201,222.88901 410.53201,223.65759 C410.53201,224.42618 411.54451,225.59676 412.78201,226.25888 C414.01951,226.921 418.85701,231.27279 423.53201,235.92952 C428.20701,240.58626 433.41375,245.45217 435.10255,246.74266 C438.49427,249.33443 441.17297,254.78899 444.62131,266.12539 C447.07443,274.19002 448.47365,289.82539 446.64087,288.69267 C446.04019,288.32143 445.33345,289.23823 444.98979,290.83449 C442.74232,301.27381 441.93033,303.47352 439.81191,304.86156 C438.55796,305.68318 437.53201,306.94651 437.53201,307.66897 C437.53201,308.39143 436.95109,309.57718 436.24109,310.30396 C435.53108,311.03075 434.19274,312.72137 433.267,314.0609 C428.2429,321.33063 407.36319,343.12539 405.42273,343.12539 C404.36194,343.12539 402.28806,344.65202 393.75973,351.71081 C389.85523,354.94251 384.27122,358.08818 378.78197,360.1483 C376.99447,360.81915 375.53197,361.72622 375.53197,362.164 C375.53197,362.60179 373.50697,363.73333 371.03197,364.67854 C368.55697,365.62375 366.53197,366.73711 366.53197,367.15267 C366.53197,367.56823 364.61947,368.66808 362.28197,369.59678 C359.94447,370.52548 357.13197,372.09391 356.03197,373.08219 C354.93197,374.07046 352.23197,375.43463 350.03197,376.11367 C347.83197,376.79271 345.10952,377.92451 343.98209,378.62877 C342.85465,379.33304 338.57965,380.42615 334.48209,381.05791 C330.38452,381.68966 325.23197,383.07138 323.03197,384.12839 C320.20882,385.4848 315.79565,386.23407 308.03197,386.67511 C301.98197,387.0188 296.58197,387.66062 296.03197,388.10138 C293.42191,390.193 281.71011,391.13873 255.53197,391.37173 C239.85697,391.51124 225.68197,391.49702 224.03197,391.34013 L224.03197,391.34012 Z M282.53197,375.17427 C286.10697,374.15882 293.52348,373.04101 299.0131,372.69026 C304.55362,372.33626 309.89674,371.46118 311.02279,370.72336 C313.41301,369.15723 322.30319,367.12539 326.76547,367.12539 C328.48975,367.12539 331.7301,366.29811 333.96625,365.28699 C336.20239,364.27587 340.28197,362.89792 343.03197,362.22486 C345.78197,361.55181 348.96097,360.12909 350.09642,359.06326 C351.23187,357.99743 353.03187,357.11876 354.09642,357.11065 C355.16097,357.10265 356.98196,356.54004 358.14307,355.86065 C359.30417,355.18126 362.45417,353.43653 365.14307,351.98348 C367.83196,350.53042 370.88921,348.39292 371.93696,347.23348 C372.9847,346.07403 374.86267,345.12539 376.11023,345.12539 C377.35779,345.12539 379.71551,344.00039 381.3496,342.62539 C382.9837,341.25039 384.60216,340.12539 384.9462,340.12539 C385.29023,340.12539 387.35383,339.00039 389.53197,337.62539 C391.71011,336.25039 394.17617,335.12539 395.0121,335.12539 C395.84803,335.12539 396.53197,334.6493 396.53197,334.06741 C396.53197,333.20269 399.69221,329.89511 406.79238,323.32864 C407.2106,322.94185 411.35982,318.57539 416.01286,313.62539 C420.66591,308.67539 425.54451,303.50039 426.8542,302.12539 C430.59879,298.19405 431.34388,296.07788 431.93969,287.68175 C432.24625,283.36161 432.66804,279.65598 432.877,279.44702 C433.08596,279.23806 432.47773,275.25382 431.52538,270.59315 C430.13627,263.79503 429.27354,261.70995 427.1629,260.04972 C425.71589,258.9115 424.53197,257.4036 424.53197,256.69883 C424.53197,255.21266 422.93718,253.50316 411.40285,242.62539 C395.52654,227.65279 389.13082,223.12539 383.85579,223.12539 C382.73119,223.12539 380.15328,222.00039 378.12711,220.62539 C375.50121,218.84341 373.09168,218.12147 369.73756,218.11174 C362.72629,218.09134 360.58583,217.24743 359.95829,214.2559 C359.65479,212.80912 359.20114,210.61289 358.95017,209.37539 C358.35462,206.43876 353.39277,206.30312 349.80484,209.12539 C348.40642,210.22539 346.68544,211.12539 345.98044,211.12539 C345.27545,211.12539 344.53364,211.62039 344.33197,212.22539 C344.11597,212.8734 341.32186,213.32539 337.53195,213.32539 C333.54346,213.32539 329.24537,214.05587 326.22203,215.24756 C323.46441,216.33451 316.71493,217.57277 310.68872,218.0973 C304.82751,218.60746 297.20286,219.94018 293.74506,221.05889 C289.59118,222.4028 284.9546,223.06717 280.07914,223.01705 C274.23085,222.95695 272.11222,223.35573 269.86605,224.93952 C268.30731,226.0386 264.55697,227.7214 261.53197,228.67908 C258.50697,229.63675 255.78116,230.80273 255.47462,231.27015 C255.16808,231.73756 251.6283,232.98348 247.60845,234.03886 C243.5886,235.09424 239.81191,236.44545 239.2158,237.04156 C238.61969,237.63767 237.28588,238.12539 236.25177,238.12539 C234.54485,238.12539 229.28752,241.95825 222.87821,247.87539 C221.53778,249.11289 220.00742,250.12539 219.47741,250.12539 C218.94741,250.12539 217.10112,251.47539 215.37455,253.12539 C212.96001,255.43286 211.31436,256.12539 208.24572,256.12539 L204.25611,256.12539 L204.92842,263.54461 C205.54856,270.38811 205.43521,271.07975 203.46766,272.45788 C201.14807,274.08259 198.53197,278.49857 198.53197,280.78936 C198.53197,281.5788 197.77098,283.66486 196.84088,285.42505 C194.05493,290.69739 190.46274,301.20441 189.07998,308.12539 C188.36573,311.70039 186.77132,317.27055 185.53686,320.50352 C182.16984,329.32156 182.57985,346.71837 186.26403,351.35711 C186.81804,352.05466 187.79722,354.25941 188.43998,356.25654 C190.29909,362.03306 200.54739,369.55082 212.03197,373.56271 C223.31368,377.50374 229.10943,378.06491 253.03197,377.53245 C271.21697,377.12771 277.39273,376.63402 282.53197,375.17427 L282.53197,375.17427 Z M273.34596,338.04135 C263.95064,337.05118 258.79666,334.55711 252.2442,327.82995 L247.29324,322.74699 L247.80749,315.68619 C248.55755,305.38777 253.21215,296.85568 263.34328,287.20838 C269.91119,280.95413 276.63073,276.08072 281.28197,274.19816 C283.06947,273.47469 284.53197,272.55937 284.53197,272.16413 C284.53197,271.76889 286.44447,270.85242 288.78197,270.12754 C291.11947,269.40265 293.968,268.24536 295.11205,267.55576 C297.62738,266.0396 319.09453,261.12539 323.20238,261.12539 C324.81365,261.12539 326.55947,261.51421 327.08197,261.98943 C327.60447,262.46465 330.28197,263.3839 333.03197,264.0322 C337.15073,265.00318 339.03514,266.27264 343.72376,271.23487 C347.67399,275.41562 349.92994,278.84478 351.09668,282.4421 C352.0213,285.29291 353.1725,288.05289 353.65489,288.57539 C356.55461,291.71619 351.69802,302.7536 344.09458,310.3028 C336.1674,318.17343 332.61427,321.12539 331.06796,321.12539 C330.30756,321.12539 328.34572,322.25268 326.7083,323.63047 C325.07089,325.00826 322.33636,326.41451 320.63158,326.75547 C318.92679,327.09643 317.53197,327.7631 317.53197,328.23697 C317.53197,329.4681 310.77537,332.12539 307.64504,332.12539 C306.19156,332.12539 303.41482,332.97625 301.47451,334.0162 C299.5342,335.05615 294.7473,336.40341 290.83695,337.01012 C286.9266,337.61683 283.1208,338.27931 282.3796,338.4823 C281.6384,338.6853 277.57326,338.4873 273.34596,338.04135 Z M290.68292,324.23842 C295.08579,323.62828 298.96689,322.44063 300.6681,321.18286 C302.19869,320.05125 304.60866,319.12539 306.0236,319.12539 C308.89128,319.12539 312.60674,317.52187 320.03197,313.07966 C322.78197,311.43445 326.54354,309.39515 328.39101,308.5479 C330.23849,307.70064 331.97847,306.13397 332.25764,305.06641 C332.53682,303.99885 333.08787,303.12539 333.48221,303.12539 C333.87655,303.12539 336.07407,301.39451 338.36558,299.279 C343.983,294.09303 344.02885,290.49287 338.57066,283.17725 C334.81908,278.14899 330.53197,274.17393 330.53197,275.72367 C330.53197,276.1151 329.64023,275.62837 328.55032,274.64199 C326.92173,273.16814 325.40559,272.94198 320.04059,273.37263 C316.45015,273.66084 312.95439,274.33857 312.27224,274.8787 C311.59009,275.41883 308.64606,276.63924 305.72996,277.59071 C302.81385,278.54219 299.5961,280.21355 298.5794,281.30485 C297.49349,282.47044 294.93647,283.48715 292.38142,283.76926 C285.1069,284.57245 283.39992,285.1027 284.15512,286.32465 C284.62077,287.07809 284.29521,287.24852 283.19601,286.82671 C282.28079,286.47551 281.53197,286.62404 281.53197,287.15677 C281.53197,287.68951 280.74447,288.1397 279.78197,288.15719 C277.62068,288.19649 274.53197,290.44884 274.53197,291.98563 C274.53197,292.6125 274.06968,293.12539 273.50467,293.12539 C272.32931,293.12539 263.5746,302.20166 263.54891,303.44682 C263.53991,303.8986 262.87465,304.92557 262.07125,305.72896 C258.52127,309.27895 258.99782,319.2303 262.93711,323.81001 C265.78369,327.11935 272.94934,328.28214 279.2563,326.45818 C281.57968,325.78626 286.72166,324.78737 290.68292,324.23842 L290.68292,324.23842 Z M281.28265,308.43333 C277.95504,307.56909 277.59476,299.73034 280.7906,297.72752 C282.12417,296.89177 283.21182,296.99564 285.2906,298.15724 C287.49607,299.38963 288.09208,300.51367 288.33947,303.90724 C288.57208,307.0981 288.28757,308.12539 287.17126,308.12539 C286.35961,308.12539 285.09624,308.2969 284.36376,308.50653 C283.63127,308.71615 282.24478,308.68322 281.28265,308.43333 Z M306.56491,298.66508 C305.0227,296.80683 305.82545,290.20355 307.74654,288.94531 C308.45353,288.48226 310.60697,288.22085 312.53197,288.3644 C315.40902,288.57894 316.33975,289.2421 317.76123,292.09032 C319.2373,295.04792 319.29365,295.85322 318.14605,297.59032 C316.38962,300.24899 308.48802,300.98228 306.56491,298.66508 Z M232.22038,276.67094 C231.29175,275.74232 230.52196,274.45218 230.50973,273.80396 C230.49753,273.15575 229.63796,271.51994 228.59963,270.16884 C226.74823,267.75974 226.74866,267.66537 228.62183,265.28398 C229.67239,263.94841 230.53194,261.97329 230.53194,260.89482 C230.53194,257.71414 233.68904,253.30248 236.45989,252.61122 C237.87452,252.25831 239.70694,251.38517 240.53194,250.67091 C241.35694,249.95664 245.31681,249.15019 249.33165,248.87878 C258.28577,248.27348 260.48433,249.57867 260.69858,255.62687 C260.87569,260.62658 258.66379,265.00242 254.07182,268.73667 C252.1181,270.32547 248.98083,272.88013 247.10012,274.4137 C242.70329,277.99897 234.75423,279.20483 232.22035,276.67094 L232.22038,276.67094 Z M299.28195,249.04528 C296.71301,247.54901 294.28203,242.25738 294.9468,239.60873 C295.31123,238.15672 297.16939,236.51114 299.982,235.14958 C302.4337,233.96273 304.71589,232.12128 305.05353,231.05747 C306.00402,228.06273 309.1472,226.92807 318.02731,226.37406 C324.86291,225.9476 326.68117,226.16853 329.11767,227.72159 C332.80063,230.06915 333.49765,231.0592 333.51666,233.96997 C333.53566,236.8774 326.26864,244.72368 322.7356,245.61042 C321.33542,245.96184 319.08111,247.12147 317.72603,248.18738 C315.80183,249.70096 313.70401,250.11873 308.14711,250.09498 C304.23378,250.07828 300.24446,249.60589 299.28195,249.04528 L299.28195,249.04528 Z M82.32775,234.97837 C80.84043,234.43435 79.37608,233.20959 79.07364,232.25667 C78.36291,230.01736 66.49649,220.55523 62.08985,218.71402 C60.22156,217.9334 58.1909,216.35661 57.57728,215.21005 C56.96366,214.06349 55.81591,213.12539 55.02672,213.12539 C54.23754,213.12539 52.59375,211.77539 51.37385,210.12539 C50.15395,208.47539 48.56929,207.12539 47.85238,207.12539 C47.13548,207.12539 45.98686,206.22539 45.2999,205.12539 C44.61294,204.02539 43.49912,203.12539 42.82476,203.12539 C41.10155,203.12539 34.53197,196.36525 34.53197,194.59206 C34.53197,193.78539 34.14165,193.12539 33.6646,193.12539 C32.46083,193.12539 18.53197,179.33632 18.53197,178.14464 C18.53197,176.3313 12.36658,173.90847 9.30853,174.52008 C6.92076,174.99763 5.78426,174.53148 3.31458,172.06185 C0.4107,169.15797 0.29111,168.7148 0.77718,162.65936 C1.13603,158.18883 1.88367,155.66425 3.29848,154.14563 C4.40464,152.95832 5.57062,150.6821 5.88957,149.08738 C6.20851,147.49266 7.38353,145.27383 8.50072,144.15664 C9.6179,143.03945 10.53197,141.90039 10.53197,141.62539 C10.53197,140.45116 14.666,137.12539 16.12559,137.12539 C17.00208,137.12539 17.93534,136.2989 18.1995,135.28875 C18.6599,133.5282 26.2492,129.12539 28.82353,129.12539 C29.50446,129.12539 31.85492,128.16005 34.04678,126.98019 C37.00939,125.38543 40.34131,124.72421 47.03197,124.40329 C55.51119,123.99658 56.19429,124.11572 58.83713,126.46224 C60.67637,128.09526 63.43107,129.19083 66.83713,129.6439 C69.69429,130.02396 73.60697,131.2776 75.53197,132.42977 C80.39721,135.34176 86.8997,141.96882 88.87559,146.02903 C90.66399,149.70395 91.07088,154.67429 89.65497,155.54937 C89.17261,155.84749 88.29301,158.01729 87.7003,160.37117 C87.10759,162.72504 85.67486,165.66827 84.51646,166.91166 C83.35806,168.15505 81.76698,170.71203 80.98071,172.59383 C80.19444,174.47563 78.93279,176.37756 78.17703,176.82034 C77.42128,177.26312 76.00224,179.20039 75.02361,181.12539 C72.85895,185.38339 67.65021,190.46278 63.6183,192.24747 C60.04015,193.83131 58.55403,197.9986 61.06603,199.40439 C61.97903,199.91533 63.66352,201.41158 64.80934,202.72938 C65.95516,204.04719 67.46097,205.12539 68.1556,205.12539 C68.85023,205.12539 70.00658,205.92265 70.72527,206.89708 C72.37344,209.13176 85.96476,219.28746 90.26504,221.4976 C94.57935,223.71495 97.11116,228.5588 95.64162,231.78408 C93.85536,235.70449 88.0928,237.08706 82.32775,234.97837 L82.32775,234.97837 Z M52.00712,175.38008 C57.7858,171.496 66.32735,163.25448 69.19413,158.79676 C72.60141,153.49858 71.75155,150.4483 65.75451,146.45133 C61.89665,143.88011 59.65875,143.18918 53.53197,142.67773 C45.48656,142.00611 35.55466,143.88989 32.48248,146.67018 C31.59808,147.47055 30.37023,148.12539 29.75392,148.12539 C29.1376,148.12539 27.26262,149.58789 25.58728,151.37539 C22.09536,155.10111 21.53421,159.78044 24.28197,162.26028 C25.24447,163.12893 26.79684,164.69144 27.73169,165.73252 C28.66653,166.7736 29.90061,168.07539 30.47408,168.62539 C31.04755,169.17539 33.20768,171.47889 35.27436,173.74427 C37.34105,176.00965 39.70697,178.12832 40.53197,178.45243 C43.09971,179.46118 47.81266,178.19934 52.00712,175.38008 L52.00712,175.38008 Z M121.17974,188.07674 C116.86101,185.80471 111.82575,182.29869 109.99026,180.28559 C102.96655,172.58219 99.53197,168.34687 99.53197,167.38905 C99.53197,166.84238 98.69425,165.32192 97.67038,164.01025 C95.94753,161.80314 94.79993,154.24673 93.13173,134.12539 C92.97214,132.20039 93.4858,125.91415 94.2732,120.15596 C95.72584,109.53304 97.73903,104.50261 103.22064,97.79866 C104.49187,96.24397 105.53197,94.49248 105.53197,93.90648 C105.53197,91.91286 114.89543,81.87155 117.97001,80.56802 C119.65409,79.85402 121.56336,78.39325 122.21284,77.32187 C122.86232,76.25049 125.02347,75.06816 127.0154,74.69448 C129.00733,74.32079 130.87755,73.38839 131.17146,72.62248 C131.46537,71.85657 134.25422,70.6764 137.3689,69.99988 C140.48359,69.32335 144.60031,67.94984 146.51716,66.94761 C151.57471,64.30329 169.06976,64.34232 174.32181,67.00961 C176.3624,68.04595 180.62397,69.42879 183.79197,70.08258 C187.00994,70.74669 190.8249,72.3424 192.43632,73.69832 C194.02272,75.03319 195.65582,76.12535 196.06542,76.12535 C197.2671,76.12535 209.65792,87.30964 210.37602,89.04248 C210.73679,89.91306 212.23673,92.42535 213.70922,94.62535 C216.47916,98.76385 217.252,101.84476 218.42958,113.44298 C219.48688,123.85665 216.7679,143.95453 213.74595,148.06282 C212.70925,149.47221 211.54838,151.88295 211.16624,153.42002 C209.78093,158.99213 187.50585,179.08986 180.86923,180.75555 C179.36381,181.13339 175.70137,182.72116 172.73049,184.28394 C169.7596,185.84672 166.35541,187.12535 165.16562,187.12535 C163.97582,187.12535 161.20902,188.12267 159.01716,189.34162 C155.58888,191.24817 153.21529,191.60329 142.03197,191.88277 L129.03197,192.20766 L121.17974,188.0767 L121.17974,188.07674 Z M155.74412,175.62539 C158.32705,174.25039 161.24847,173.11785 162.23616,173.10864 C164.30416,173.08934 177.72005,166.59099 181.81435,163.62539 C187.72108,159.34701 196.36295,150.42076 198.64164,146.24439 C199.95632,143.83484 201.64321,140.74688 202.39028,139.38226 C204.32159,135.85445 205.21595,109.80166 203.58554,104.56405 C200.25819,93.87508 196.20365,89.48784 183.6004,82.93896 C181.71304,81.95825 179.81778,80.5865 179.38873,79.89062 C178.8486,79.01459 174.8634,78.52176 166.43344,78.28852 C155.25349,77.97918 154.02077,78.12722 151.35306,80.09954 C149.75521,81.28089 145.47113,82.87026 141.83289,83.63148 C138.19465,84.3927 134.93531,85.47278 134.5899,86.03166 C134.24449,86.59055 132.39167,87.70389 130.47252,88.50576 C126.74538,90.06306 119.53197,96.32389 119.53197,98.00153 C119.53197,98.55728 118.65897,99.62346 117.59197,100.37081 C116.52497,101.11817 114.66512,104.40618 113.45896,107.67752 C112.25281,110.94885 110.83599,114.16948 110.31047,114.83448 C107.14715,118.83741 107.68089,148.64511 111.03192,155.1253 C111.82549,156.65988 112.76583,159.7357 113.12159,161.96045 C113.54653,164.61793 114.75693,166.88624 116.65019,168.57314 C118.23517,169.98536 119.53197,171.58735 119.53197,172.1331 C119.53197,172.67886 120.04169,173.12539 120.66467,173.12539 C121.28766,173.12539 122.53162,173.97197 123.42902,175.00668 C125.65291,177.57085 127.33844,177.87554 140.03993,178.00939 C149.98731,178.11421 151.50035,177.88453 155.74412,175.62539 L155.74412,175.62539 Z M348.53197,165.93646 C344.09879,164.74931 342.53197,162.69854 342.53197,158.0832 C342.53197,156.07024 341.40697,152.30743 340.03197,149.72141 C338.10544,146.09812 337.53197,143.53153 337.53197,138.53264 C337.53197,134.0673 336.92226,130.85059 335.57553,128.21078 C334.4995,126.10157 333.18894,120.91102 332.66319,116.67622 C331.66808,108.66086 329.75477,105.12539 326.41217,105.12539 C325.41676,105.12539 324.17135,105.9307 323.64458,106.91497 C323.11782,107.89924 321.52698,109.32528 320.1094,110.08395 C318.69181,110.84262 317.53197,112.01416 317.53197,112.68738 C317.53197,113.3606 316.85308,114.17193 316.02332,114.49034 C315.19356,114.80874 314.01371,116.16875 313.40142,117.51257 C312.78913,118.85639 311.40963,120.18563 310.33586,120.46642 C309.26209,120.74722 308.15404,121.85461 307.87353,122.92728 C307.59302,123.99995 306.27641,125.45938 304.94774,126.17047 C303.61907,126.88155 302.53197,127.78831 302.53197,128.18549 C302.53197,128.58266 300.70146,131.09412 298.46418,133.76651 C296.22689,136.43889 293.48692,140.37332 292.37535,142.50968 C291.26377,144.64603 289.38178,147.43495 288.19314,148.70727 C278.556,159.02284 278.42088,159.12539 274.46529,159.12539 C271.60193,159.12539 270.32014,158.59809 269.51175,157.08762 C268.0358,154.32977 269.06492,151.6102 273.43128,146.72981 C275.45095,144.47238 278.30006,141.00039 279.76264,139.01428 C282.25536,135.62929 287.78558,129.3247 292.47652,124.52015 C293.60702,123.36227 294.53197,121.91543 294.53197,121.30495 C294.53197,120.69447 295.91526,118.61951 297.60594,116.69392 C301.82901,111.88411 301.38129,108.57498 296.53197,108.75615 C294.60697,108.82805 283.25836,109.03206 271.31283,109.20946 C250.47681,109.51889 249.50096,109.44743 247.31283,107.45187 C246.05836,106.3078 243.45697,104.85266 241.53197,104.21823 C237.85252,103.00559 236.2069,101.20516 232.20376,94.0125 C230.09468,90.22301 229.74063,88.21119 229.60474,79.24385 C229.43018,67.7252 230.94653,58.861847 233.71124,55.240527 C234.71264,53.928857 235.53197,52.126453 235.53197,51.235203 C235.53197,48.901293 242.58322,38.125383 244.11042,38.125383 C244.81814,38.125383 245.66866,37.270063 246.00045,36.224683 C246.79137,33.732723 255.90829,24.501553 259.34326,22.714673 C260.82205,21.945403 263.03113,20.160033 264.25232,18.747183 C265.47351,17.334333 267.72351,15.866903 269.25232,15.486233 C270.78113,15.105553 272.51502,14.140173 273.10542,13.340933 C274.58461,11.338533 288.22145,9.348373 296.903,9.867923 C300.82394,10.102563 306.60688,9.876923 309.754,9.365743 C314.94111,8.523753 315.65695,8.632703 317.41139,10.531153 C321.01179,14.427073 323.3996,20.590273 324.61536,29.125383 C325.28128,33.800383 326.47479,38.619713 327.26761,39.835013 C328.06042,41.050313 329.11082,45.244023 329.60182,49.154363 C330.12768,53.342357 331.29016,57.381427 332.43059,58.983017 C333.55545,60.562737 334.80491,64.85304 335.41267,69.22264 C335.98799,73.35902 337.3653,78.7418 338.47337,81.18436 C339.58144,83.62693 340.49793,87.75085 340.51001,90.34864 C340.52211,92.94643 341.38024,96.99643 342.41702,99.34864 C345.3418,105.9843 346.53164,110.41809 346.53571,114.69639 C346.53771,116.85734 347.40744,120.04891 348.46833,121.78876 C349.52921,123.52862 350.92166,128.70362 351.56265,133.28876 C353.27212,145.51691 353.30271,145.64604 355.67884,150.66464 C356.20987,151.78623 356.50657,155.33389 356.33816,158.54833 C355.96676,165.63741 354.0808,167.42237 348.53197,165.93646 L348.53197,165.93646 Z M301.89345,96.55154 C307.86727,95.77803 313.04227,95.31451 313.39345,95.52151 C313.74464,95.7285 316.28197,94.69293 319.03197,93.22025 C323.41044,90.8755 324.01089,90.17488 323.86237,87.58402 C323.47567,80.83793 320.2627,65.42459 318.38308,61.298547 C317.27276,58.861247 316.10493,55.237697 315.78792,53.246237 C315.4709,51.254763 314.38139,48.020763 313.36679,46.059573 C312.35218,44.098373 311.06072,38.698373 310.49687,34.059573 C309.07916,22.395883 308.22331,21.742523 295.57509,22.668093 C290.32637,23.052183 285.27405,23.762203 284.34771,24.245913 C283.42137,24.729623 281.49475,25.125383 280.06633,25.125383 C278.63791,25.125383 277.21018,25.800383 276.8936,26.625383 C276.57701,27.450383 275.29258,28.125383 274.03929,28.125383 C270.38987,28.125383 267.33989,30.198473 260.7944,37.128023 C252.60692,45.795903 250.11959,49.661133 246.10757,59.950857 C242.34559,69.5993 240.96305,77.84588 241.97554,84.59766 C242.7934,90.05154 248.2935,96.43609 253.53197,98.01244 C257.97554,99.34959 287.07222,98.47063 301.89345,96.55154 L301.89345,96.55154 Z M393.79315,105.87539 C391.36747,103.26083 386.53197,94.40558 386.53197,92.578 C386.53197,91.89076 385.18197,88.76209 383.53197,85.62539 C381.88197,82.48869 380.53197,78.39299 380.53197,76.52384 C380.53197,74.65469 380.17899,73.12539 379.74758,73.12539 C377.98326,73.12539 375.53197,67.03729 375.53197,62.655357 C375.53197,60.091557 375.0439,57.081947 374.44738,55.967327 C373.85086,54.852717 372.33654,50.410843 371.08224,46.096503 C369.82794,41.782163 368.06668,37.517233 367.16833,36.618883 C366.26999,35.720543 365.24886,33.779493 364.89916,32.305453 C364.54947,30.831413 363.62,28.883133 362.83367,27.975933 C359.41061,24.026683 357.19686,7.860493 359.73197,5.325383 C362.18273,2.874613 369.53197,4.625823 369.53197,7.660563 C369.53197,8.466213 369.96463,9.125383 370.49343,9.125383 C371.02223,9.125383 371.94206,10.934623 372.5375,13.145923 C373.13294,15.357213 374.66318,18.703493 375.93803,20.582093 C377.21288,22.460683 378.5475,25.713943 378.90385,27.811553 C379.2602,29.909153 380.82882,33.156003 382.38967,35.026773 L385.22757,38.428163 L388.56107,33.526773 C390.39449,30.831003 392.49036,28.264193 393.21856,27.822733 C393.94675,27.381273 395.77767,25.894593 397.28726,24.518993 C398.79685,23.143393 402.86602,19.454583 406.32986,16.321643 C409.7937,13.188703 414.9687,8.492513 417.82986,5.885663 C425.52281,-1.123497 431.5403,-0.600737 431.5248,7.075383 C431.5188,10.207433 430.79698,11.214043 425.3965,15.625383 C422.02987,18.375383 417.34362,22.537883 414.98261,24.875383 C412.6216,27.212883 410.21934,29.125383 409.64425,29.125383 C408.35063,29.125383 402.6417,34.767153 400.28197,38.377523 C398.6153,40.927513 398.6153,41.098533 400.28197,41.968873 C401.24447,42.471493 406.08197,43.191633 411.03197,43.569163 C415.98197,43.946703 423.69705,45.351303 428.17658,46.690493 C432.65612,48.029683 437.23648,49.125383 438.35516,49.125383 C439.47383,49.125383 441.0506,49.786863 441.85908,50.595343 C443.38284,52.119113 450.90408,55.054777 453.53197,55.151477 C454.35697,55.181777 456.58997,56.538377 458.4942,58.166027 C460.39842,59.793677 462.48082,61.125387 463.12175,61.125387 C463.76268,61.125387 464.80068,61.744227 465.4284,62.500597 C466.05613,63.256967 468.36123,64.16228 470.55085,64.51242 C473.07363,64.91583 474.53197,65.68128 474.53197,66.60202 C474.53197,67.40117 475.54447,68.57465 476.78197,69.20976 C478.01947,69.84486 479.93197,71.22084 481.03197,72.26749 C482.13197,73.31413 484.61356,75.39783 486.54661,76.89793 C489.07473,78.85982 490.04432,80.382 490.00091,82.3209 C489.91601,86.11412 486.86182,89.12539 483.09949,89.12539 C479.23223,89.12539 476.33724,87.16441 473.55243,82.65849 C471.31606,79.03997 463.50515,74.68213 454.53197,72.04665 C452.05697,71.31972 448.63949,69.69006 446.93758,68.42518 C445.23566,67.1603 443.19829,66.12539 442.41009,66.12539 C441.62188,66.12539 439.92437,65.38811 438.63784,64.48699 C436.36008,62.891587 424.36821,60.128927 419.71054,60.126567 C418.43376,60.125917 416.78486,59.521137 416.04633,58.782607 C415.20176,57.938037 410.86861,57.187897 404.36776,56.760847 C398.68307,56.387407 393.13219,55.979167 392.03245,55.853627 C388.91339,55.497587 389.07212,58.993297 392.48759,65.87723 C394.162,69.25202 395.53197,72.83262 395.53197,73.83411 C395.53197,74.8356 396.43197,77.33421 397.53197,79.38657 C398.63197,81.43894 399.53197,84.59031 399.53197,86.38963 C399.53197,88.29609 400.65855,91.31903 402.23197,93.63453 C403.7789,95.91105 404.93197,98.97837 404.93197,100.81692 C404.93197,107.36085 398.06464,110.4795 393.79315,105.87539 L393.79315,105.87539 Z" id="path4495"></path>
                    <path d="M559.91655,341.23692 C561.01692,342.37589 561.79933,344.11721 561.65522,345.10653 C561.31707,347.43146 567.85893,361.12597 571.01894,364.70687 C572.3587,366.22507 573.4968,368.5304 573.54805,369.82983 C573.59935,371.12925 574.22209,372.47442 574.93204,372.8191 C575.64198,373.16376 576.5311,375.09612 576.90788,377.11322 C577.28466,379.13032 578.1206,381.03685 578.76552,381.34996 C579.41043,381.66306 580.05064,382.97433 580.18821,384.26391 C580.32577,385.55348 580.93468,386.84956 581.54132,387.14408 C583.0915,387.89668 586.04896,396.84723 585.27453,398.44236 C584.92222,399.16804 584.98505,399.93222 585.41424,400.14058 C586.49714,400.66632 593.00507,419.1541 592.48461,420.22612 C591.69265,421.85737 596.18079,426.72961 599.19888,427.515 C601.55546,428.12824 602.37425,429.04395 603.51734,432.34421 C604.86139,436.22475 604.77542,436.67564 601.69348,441.91075 C599.41819,445.77565 597.64303,447.7202 595.70704,448.46842 C594.1934,449.0534 592.15039,450.59183 591.16698,451.88712 C590.18358,453.18241 588.1575,454.66525 586.66456,455.18234 C585.17163,455.69942 583.85188,456.32489 583.73177,456.57228 C583.21893,457.6286 578.04751,458.81491 576.73448,458.17745 C575.946,457.79464 574.74549,458.13055 574.06668,458.92389 C572.8836,460.30658 564.13347,460.95272 561.81765,459.8284 C561.20508,459.531 558.66908,459.3726 556.18197,459.47697 C552.82036,459.61769 549.53422,458.75732 543.37523,456.12392 C535.56982,452.78655 535.00735,452.38103 533.6547,449.11589 C532.71336,446.84357 530.71376,444.65491 527.84759,442.75977 C525.44332,441.17002 522.47104,438.33343 521.24254,436.45623 C518.13763,431.71178 515.18239,422.91025 515.17818,418.39479 C515.17418,414.30781 516.97909,409.65885 518.63501,409.49003 C519.19913,409.43253 520.93806,407.86475 522.4993,406.00609 C524.06052,404.14745 526.63483,402.12549 528.21995,401.51288 C529.80507,400.90026 532.35312,399.29493 533.8823,397.94549 C535.41149,396.59606 537.37711,395.43613 538.25035,395.36788 C539.1236,395.29958 541.24624,394.17665 542.96733,392.87235 C546.77428,389.98731 553.67838,387.69285 558.08489,387.84827 C561.99547,387.9862 565.15239,384.88642 563.5066,382.52469 C562.90843,381.66631 562.04657,379.58461 561.59134,377.89871 C561.13612,376.2128 560.25242,374.58521 559.62754,374.28184 C559.00266,373.97846 558.31062,372.75623 558.08966,371.56576 C557.58298,368.83565 549.79184,353.76381 546.88864,349.89748 C543.97596,346.01853 543.81389,340.55532 546.54449,338.29571 C549.8636,335.54911 555.65135,336.82212 559.91655,341.23692 L559.91655,341.23692 Z M561.16343,408.09304 C554.26866,409.0633 542.98537,412.7468 538.45957,415.50486 C533.08049,418.78292 532.51282,421.89808 536.16203,428.11286 C538.50954,432.11079 540.22096,433.70973 545.50916,436.84566 C552.45337,440.96361 562.21071,443.60668 566.18866,442.44732 C567.33382,442.11357 568.72437,442.06075 569.2788,442.32991 C569.83323,442.59908 572.15867,442.10233 574.44646,441.22601 C579.21493,439.39948 581.76339,435.4351 580.37461,432.0042 C579.88812,430.80241 579.17406,428.7188 578.78776,427.37398 C578.40148,426.02915 577.85986,424.31911 577.58419,423.57387 C577.30851,422.82864 576.37133,419.81302 575.50155,416.8725 C574.63178,413.93199 573.42875,410.99276 572.82814,410.34089 C570.9588,408.31199 566.168,407.38877 561.16343,408.09304 L561.16343,408.09304 Z" id="path4495-3"></path>
                </g>
            </g>
        </g>
    </g>
</svg>